<svg xmlns="http://www.w3.org/2000/svg" width="16" height="17" viewBox="0 0 16 17" fill="none">
    <path d="M2.72532 2.7012C2.6042 2.69996 2.48674 2.74274 2.39477 2.82158C2.30281 2.90042 2.2426 3.00997 2.22532 3.12987C2.18674 3.40374 2.16714 3.67995 2.16666 3.95653C2.16666 6.98853 4.51599 9.46987 7.49999 9.7212V13.8679C7.49999 14.0005 7.55267 14.1277 7.64644 14.2214C7.7402 14.3152 7.86738 14.3679 7.99999 14.3679C8.1326 14.3679 8.25978 14.3152 8.35354 14.2214C8.44731 14.1277 8.49999 14.0005 8.49999 13.8679V9.7212C11.484 9.46987 13.8333 6.98787 13.8333 3.95587C13.8333 3.67587 13.8135 3.40031 13.774 3.1292C13.7566 3.00943 13.6963 2.90004 13.6043 2.82133C13.5124 2.74262 13.395 2.69994 13.274 2.7012C12.1583 2.71061 11.0687 3.0394 10.1341 3.64868C9.1994 4.25796 8.45884 5.12222 7.99999 6.1392C7.54109 5.12212 6.80043 4.25779 5.86564 3.6485C4.93086 3.03922 3.8411 2.71048 2.72532 2.7012Z" fill="#9AB5E3"/>
</svg>