<svg xmlns="http://www.w3.org/2000/svg" width="16" height="17" viewBox="0 0 16 17" fill="none">
    <path fill-rule="evenodd" clip-rule="evenodd" d="M2.66666 4.56719V5.36719H1.86666C1.5484 5.36719 1.24317 5.49362 1.01813 5.71866C0.793085 5.9437 0.666656 6.24893 0.666656 6.56719V12.1672C0.666656 12.4854 0.793085 12.7907 1.01813 13.0157C1.24317 13.2408 1.5484 13.3672 1.86666 13.3672H12.8C12.9576 13.3672 13.1136 13.3361 13.2592 13.2758C13.4048 13.2155 13.5371 13.1271 13.6485 13.0157C13.7599 12.9043 13.8483 12.772 13.9086 12.6264C13.969 12.4808 14 12.3248 14 12.1672V11.3672H14.8C15.4613 11.3672 16 10.8285 16 10.1672V4.56719C16 3.90585 15.4613 3.36719 14.8 3.36719H3.86666C3.20532 3.36719 2.66666 3.90585 2.66666 4.56719ZM3.99999 4.70052V5.36719H12.8C12.9576 5.36719 13.1136 5.39823 13.2592 5.45853C13.4048 5.51884 13.5371 5.60723 13.6485 5.71866C13.7599 5.83009 13.8483 5.96238 13.9086 6.10797C13.969 6.25356 14 6.4096 14 6.56719V10.0339H14.6667V4.70052H3.99999ZM5.99999 9.36719C5.99999 9.01357 6.14047 8.67443 6.39051 8.42438C6.64056 8.17433 6.9797 8.03385 7.33332 8.03385C7.68694 8.03385 8.02608 8.17433 8.27613 8.42438C8.52618 8.67443 8.66666 9.01357 8.66666 9.36719C8.66666 9.72081 8.52618 10.0599 8.27613 10.31C8.02608 10.56 7.68694 10.7005 7.33332 10.7005C6.9797 10.7005 6.64056 10.56 6.39051 10.31C6.14047 10.0599 5.99999 9.72081 5.99999 9.36719Z" fill="#9AB5E3"/>
</svg>