<svg xmlns="http://www.w3.org/2000/svg" width="16" height="17" viewBox="0 0 16 17" fill="none">
    <g clip-path="url(#clip0_101_5786)">
        <path fill-rule="evenodd" clip-rule="evenodd" d="M7.98514 1.7481C7.50739 1.73947 7.03262 1.82514 6.58802 2.0002C6.14341 2.17527 5.73769 2.43629 5.39407 2.76834C5.05046 3.10038 4.7757 3.49692 4.58551 3.93528C4.39533 4.37363 4.29345 4.84518 4.28571 5.32295V10.3195C4.28571 10.6226 4.16531 10.9133 3.95098 11.1276C3.73665 11.342 3.44596 11.4624 3.14286 11.4624H1.71429C1.25963 11.4624 0.823594 11.2818 0.502103 10.9603C0.180612 10.6388 0 10.2028 0 9.7481L0 7.46238C0 7.00773 0.180612 6.57169 0.502103 6.2502C0.823594 5.92871 1.25963 5.7481 1.71429 5.7481H2.57143V5.30238C2.58186 4.59997 2.73055 3.9065 3.00902 3.26157C3.28749 2.61663 3.69028 2.03287 4.19439 1.54362C4.69849 1.05438 5.29404 0.669227 5.94701 0.41017C6.59998 0.151114 7.2976 0.0232257 8 0.0338103C8.70241 0.0232257 9.40002 0.151114 10.053 0.41017C10.706 0.669227 11.3015 1.05438 11.8056 1.54362C12.3097 2.03287 12.7125 2.61663 12.991 3.26157C13.2695 3.9065 13.4181 4.59997 13.4286 5.30238V5.7481H14.2857C14.7404 5.7481 15.1764 5.92871 15.4979 6.2502C15.8194 6.57169 16 7.00773 16 7.46238V9.7481C16 10.2028 15.8194 10.6388 15.4979 10.9603C15.1764 11.2818 14.7404 11.4624 14.2857 11.4624H13.4286V12.0338C13.4287 12.8061 13.1445 13.5514 12.6302 14.1275C12.1158 14.7036 11.4074 15.0702 10.64 15.1572C10.491 15.4233 10.2737 15.6448 10.0105 15.7989C9.74733 15.953 9.44782 16.0341 9.14286 16.0338H7.42857C6.97392 16.0338 6.53788 15.8532 6.21639 15.5317C5.8949 15.2102 5.71429 14.7742 5.71429 14.3195C5.71429 13.8649 5.8949 13.4288 6.21639 13.1073C6.53788 12.7859 6.97392 12.6052 7.42857 12.6052H9.14286C9.76229 12.6052 10.3051 12.9332 10.6057 13.4258C10.9207 13.3534 11.2019 13.1763 11.4032 12.9235C11.6046 12.6707 11.7142 12.357 11.7143 12.0338V5.32181C11.7064 4.84158 11.6035 4.36767 11.4114 3.92747C11.2193 3.48727 10.9418 3.08952 10.595 2.7572C10.2483 2.42489 9.83908 2.1646 9.39111 1.9914C8.94313 1.81819 8.46527 1.7355 7.98514 1.7481Z" fill="#9AB5E3"/>
    </g>
    <defs>
        <clipPath id="clip0_101_5786">
            <rect width="16" height="16" fill="white" transform="translate(0 0.0341797)"/>
        </clipPath>
    </defs>
</svg>