<svg xmlns="http://www.w3.org/2000/svg" width="16" height="17" viewBox="0 0 16 17" fill="none">
    <path d="M8.00001 1.86719C11.682 1.86719 14.6667 4.85185 14.6667 8.53385C14.6667 12.2159 11.682 15.2005 8.00001 15.2005C4.31801 15.2005 1.33334 12.2159 1.33334 8.53385C1.33334 4.85185 4.31801 1.86719 8.00001 1.86719ZM8.00001 4.53385C7.8232 4.53385 7.65363 4.60409 7.52861 4.72912C7.40358 4.85414 7.33334 5.02371 7.33334 5.20052V8.53385C7.33338 8.71065 7.40364 8.88019 7.52868 9.00519L9.52868 11.0052C9.65441 11.1266 9.82281 11.1938 9.99761 11.1923C10.1724 11.1908 10.3396 11.1207 10.4632 10.9971C10.5868 10.8735 10.6569 10.7063 10.6585 10.5315C10.66 10.3567 10.5928 10.1883 10.4713 10.0625L8.66668 8.25785V5.20052C8.66668 5.02371 8.59644 4.85414 8.47141 4.72912C8.34639 4.60409 8.17682 4.53385 8.00001 4.53385Z" fill="#9AB5E3"/>
</svg>