<svg width="144" height="144" viewBox="0 0 144 144" fill="none" xmlns="http://www.w3.org/2000/svg">
<path d="M48.8688 142.549V114.985L24.543 112.206C9.94751 109.982 2.09955 92.2857 0 83.7155V31.5994C2.78009 9.36311 21.8643 1.48783 31.0588 0.329722H98.6063C130.23 -3.00571 142.045 19.7864 144 31.5994V80.4726C140.872 104.562 121.701 112.746 112.507 113.827H87.095L54.5158 141.854C51.0407 145.374 49.3032 143.784 48.8688 142.549Z" fill="#C5DEDB"/>
<path d="M111.428 0.463011C133.234 3.69621 141.951 21.5517 143.606 31.549V80.4228C140.479 104.511 121.309 112.696 112.114 113.778H86.7018L54.1215 141.805C51.0006 144.967 49.2854 144.003 48.6529 142.88L76.0573 63.6475C76.5641 61.0995 76.883 54.6621 74.1036 49.2888C70.6284 42.5716 69.5432 19.8694 81.2717 9.44622C90.654 1.10859 100.384 0.413599 104.077 1.10835L111.428 0.463011Z" fill="#B2CCC9"/>
<path d="M49.0868 28.7212C51.9653 28.7217 54.2979 31.2122 54.2979 34.2821V54.6651H89.9199V34.2821C89.9199 31.212 92.2522 28.7213 95.1311 28.7212H99.4764C102.355 28.722 104.688 31.2124 104.688 34.2821V85.703C104.687 88.7722 102.354 91.2597 99.4764 91.2604H95.1311C92.2526 91.2604 89.9205 88.7726 89.9199 85.703V63.9298H54.2979V85.703C54.2974 88.7723 51.9649 91.2599 49.0868 91.2604H44.7415C41.8632 91.2601 39.5309 88.7724 39.5303 85.703V34.2821C39.5303 31.2121 41.8629 28.7216 44.7415 28.7212H49.0868Z" fill="black"/>
<path d="M30.8429 34.2821C33.7211 34.2829 36.054 36.7699 36.0541 39.8395V78.2885C36.0541 81.3582 33.7212 83.8486 30.8429 83.8494H26.9321C24.0532 83.8494 21.7209 81.3587 21.7209 78.2885V39.8395C21.721 36.7694 24.0533 34.2821 26.9321 34.2821H30.8429Z" fill="black"/>
<path d="M117.286 34.2821C120.164 34.2825 122.497 36.7697 122.497 39.8395V78.2885C122.497 81.3584 120.164 83.8489 117.286 83.8494H113.375C110.496 83.8491 108.164 81.3585 108.164 78.2885V39.8395C108.164 36.7696 110.496 34.2824 113.375 34.2821H117.286Z" fill="black"/>
<path d="M18.2447 63.9298H11.2954C9.13624 63.9298 7.38461 62.0618 7.38461 59.7591V58.8323C7.385 56.53 9.13648 54.6651 11.2954 54.6651H18.2447V63.9298Z" fill="black"/>
<path d="M132.922 54.6651C135.081 54.6651 136.833 56.53 136.833 58.8323V59.7591C136.833 62.0618 135.082 63.9298 132.922 63.9298H125.973V54.6651H132.922Z" fill="black"/>
</svg>
