<svg xmlns="http://www.w3.org/2000/svg" version="1.1" xmlns:xlink="http://www.w3.org/1999/xlink" width="512" height="512"><svg width="512" height="512" viewBox="0 0 512 512" fill="none" xmlns="http://www.w3.org/2000/svg">
<path d="M391.066 0C457.521 0 511.394 57.364 511.394 128.126V275.472C511.394 346.234 457.521 403.598 391.066 403.598H310.98C310.557 404.878 309.788 406.079 308.623 407.061L186.178 510.324C181.445 514.315 174.476 510.726 174.476 504.297V403.598H120.328C53.8725 403.598 0 346.234 0 275.472V128.126C0 57.364 53.8725 0 120.328 0H391.066Z" fill="#C5DEDB"></path>
<path d="M391.672 0C458.127 0 512 57.3646 512 128.126V275.469C512 346.232 458.127 403.596 391.672 403.596H311.583C311.161 404.876 310.394 406.08 309.229 407.062L186.787 510.327C182.882 513.619 177.462 511.746 175.682 507.382L267.39 245.117C267.62 244.462 267.938 243.853 268.276 243.254C272.903 235.051 277.053 208.548 259.911 160.204C239.989 104.012 268.748 16.0202 327.63 0H391.672Z" fill="#B2CCC9"></path>
<path d="M173.599 93.5317C183.839 93.5323 192.141 102.372 192.141 113.275V185.666H318.838V113.275C318.838 102.372 327.14 93.5317 337.38 93.5317H352.828C363.068 93.5317 371.37 102.372 371.37 113.275V295.895C371.37 306.799 363.068 315.639 352.828 315.639H337.38C327.14 315.639 318.838 306.799 318.838 295.895V218.569H192.141V295.895C192.141 306.799 183.839 315.638 173.599 315.639H158.146C147.907 315.638 139.604 306.799 139.604 295.895V113.275C139.604 102.372 147.907 93.5329 158.146 93.5317H173.599ZM108.703 113.275C118.943 113.275 127.245 122.115 127.245 133.019V269.575C127.243 280.478 118.942 289.313 108.703 289.313H94.7968C84.5584 289.312 76.2565 280.477 76.2555 269.575V133.019C76.2555 122.115 84.5573 113.276 94.7968 113.275H108.703ZM416.177 113.275C426.417 113.275 434.719 122.115 434.719 133.019V269.575C434.717 280.478 426.416 289.313 416.177 289.313H402.271C392.032 289.312 383.731 280.477 383.729 269.575V133.019C383.729 122.116 392.031 113.276 402.271 113.275H416.177ZM63.896 218.569H39.1771C31.4971 218.569 25.2708 211.94 25.2708 203.762V200.473C25.2708 192.295 31.4971 185.666 39.1771 185.666H63.896V218.569ZM471.802 185.666C479.482 185.666 485.708 192.295 485.708 200.473V203.762C485.708 211.94 479.482 218.569 471.802 218.569H447.078V185.666H471.802Z" fill="black"></path>
</svg><style>@media (prefers-color-scheme: light) { :root { filter: none; } }
@media (prefers-color-scheme: dark) { :root { filter: none; } }
</style></svg>