<svg width="144" height="144" viewBox="0 0 144 144" fill="none" xmlns="http://www.w3.org/2000/svg">
<path d="M109.987 0C128.678 0 143.829 16.1336 143.829 36.0355V77.4764C143.829 97.3783 128.678 113.512 109.987 113.512H87.4631C87.3443 113.872 87.1278 114.21 86.8004 114.486L52.3626 143.529C51.0315 144.651 49.0713 143.642 49.0713 141.834V113.512H33.8423C15.1517 113.512 0 97.3783 0 77.4764V36.0355C0 16.1336 15.1517 0 33.8423 0H109.987Z" fill="#C5DEDB"/>
<path d="M110.158 0C128.848 0 144 16.1338 144 36.0355V77.4758C144 97.3777 128.848 113.511 110.158 113.511H87.6329C87.5141 113.871 87.2982 114.21 86.9707 114.486L52.5337 143.529C51.4356 144.455 49.9113 143.928 49.4106 142.701L75.2036 68.9391C75.2681 68.7548 75.3576 68.5836 75.4527 68.4151C76.7541 66.1082 77.9211 58.6542 73.1001 45.0574C67.4968 29.2535 75.5853 4.50569 92.146 0H110.158Z" fill="#B2CCC9"/>
<path d="M48.8247 26.3058C51.7047 26.306 54.0396 28.792 54.0396 31.8587V52.2185H89.6733V31.8587C89.6733 28.792 92.0082 26.3058 94.8882 26.3058H99.2329C102.113 26.3058 104.448 28.792 104.448 31.8587V83.2206C104.448 86.2873 102.113 88.7735 99.2329 88.7735H94.8882C92.0082 88.7735 89.6733 86.2873 89.6733 83.2206V61.4726H54.0396V83.2206C54.0396 86.2873 51.7047 88.7733 48.8247 88.7735H44.4784C41.5987 88.7732 39.2637 86.2871 39.2637 83.2206V31.8587C39.2637 28.7922 41.5987 26.3061 44.4784 26.3058H48.8247ZM30.5727 31.8587C33.4527 31.8587 35.7876 34.3449 35.7876 37.4115V75.818C35.7872 78.8843 33.4525 81.3693 30.5727 81.3693H26.6616C23.7821 81.3691 21.4471 78.8842 21.4468 75.818V37.4115C21.4468 34.3449 23.7818 31.8588 26.6616 31.8587H30.5727ZM117.05 31.8587C119.93 31.8587 122.265 34.3449 122.265 37.4115V75.818C122.264 78.8843 119.93 81.3693 117.05 81.3693H113.139C110.259 81.369 107.924 78.8842 107.924 75.818V37.4115C107.924 34.3451 110.259 31.8588 113.139 31.8587H117.05ZM17.9708 61.4726H11.0186C8.85855 61.4726 7.10742 59.608 7.10742 57.308V56.3831C7.10742 54.0831 8.85855 52.2185 11.0186 52.2185H17.9708V61.4726ZM132.694 52.2185C134.854 52.2185 136.605 54.0831 136.605 56.3831V57.308C136.605 59.608 134.854 61.4726 132.694 61.4726H125.741V52.2185H132.694Z" fill="black"/>
</svg>
