<svg width="120" height="120" viewBox="0 0 120 120" fill="none" xmlns="http://www.w3.org/2000/svg">
<path d="M40.724 118.791V95.8208L20.4525 93.5046C8.28959 91.6517 1.74962 76.9047 0 69.7629V26.3328C2.31674 7.80259 18.2202 1.23986 25.8824 0.274768H82.1719C108.525 -2.50475 118.371 16.4886 120 26.3328V67.0605C117.394 87.1348 101.418 93.955 93.7557 94.8557H72.5792L45.4299 118.211C42.5339 121.145 41.086 119.82 40.724 118.791Z" fill="#C5DEDB"/>
<path d="M92.8569 0.385843C111.029 3.08017 118.293 17.9598 119.672 26.2908V67.019C117.065 87.0928 101.091 93.9137 93.4282 94.8148H72.2515L45.1013 118.171C42.5005 120.806 41.0712 120.003 40.5441 119.066L63.3811 53.0396C63.8034 50.9163 64.0692 45.5518 61.753 41.074C58.857 35.4764 57.9527 16.5579 67.7264 7.87185C75.545 0.923821 83.6534 0.344665 86.7305 0.923622L92.8569 0.385843Z" fill="#B2CCC9"/>
<path d="M40.9057 23.9344C43.3044 23.9348 45.2483 26.0102 45.2483 28.5684V45.5542H74.9332V28.5684C74.9332 26.01 76.8769 23.9344 79.2759 23.9344H82.897C85.2955 23.935 87.2396 26.0103 87.2396 28.5684V71.4192C87.2391 73.9768 85.2952 76.0497 82.897 76.0504H79.2759C76.8772 76.0503 74.9337 73.9772 74.9332 71.4192V53.2748H45.2483V71.4192C45.2478 73.9769 43.3041 76.05 40.9057 76.0504H37.2846C34.886 76.0501 32.9424 73.977 32.9419 71.4192V28.5684C32.9419 26.0101 34.8857 23.9346 37.2846 23.9344H40.9057Z" fill="black"/>
<path d="M25.7024 28.5684C28.1009 28.569 30.045 30.6416 30.045 33.1996V65.2404C30.045 67.7985 28.101 69.8739 25.7024 69.8745H22.4434C20.0444 69.8745 18.1008 67.7989 18.1008 65.2404V33.1996C18.1009 30.6412 20.0444 28.5684 22.4434 28.5684H25.7024Z" fill="black"/>
<path d="M97.7381 28.5684C100.137 28.5688 102.081 30.6414 102.081 33.1996V65.2404C102.081 67.7987 100.137 69.8741 97.7381 69.8745H94.4791C92.0803 69.8742 90.1365 67.7987 90.1365 65.2404V33.1996C90.1366 30.6414 92.0803 28.5687 94.4791 28.5684H97.7381Z" fill="black"/>
<path d="M15.2039 53.2748H9.41283C7.61353 53.2748 6.15384 51.7181 6.15384 49.7993V49.0269C6.15417 47.1084 7.61373 45.5542 9.41283 45.5542H15.2039V53.2748Z" fill="black"/>
<path d="M110.769 45.5542C112.568 45.5542 114.027 47.1084 114.028 49.0269V49.7993C114.028 51.7181 112.568 53.2748 110.769 53.2748H104.978V45.5542H110.769Z" fill="black"/>
</svg>
