<svg width="120" height="120" viewBox="0 0 120 120" fill="none" xmlns="http://www.w3.org/2000/svg">
<path d="M91.656 0C107.231 0 119.858 13.4447 119.858 30.0296V64.5637C119.858 81.1486 107.231 94.5933 91.656 94.5933H72.8859C72.7869 94.8933 72.6065 95.1748 72.3336 95.4049L43.6355 119.607C42.5263 120.543 40.8927 119.701 40.8927 118.195V94.5933H28.2019C12.6264 94.5933 0 81.1486 0 64.5637V30.0296C0 13.4447 12.6264 0 28.2019 0H91.656Z" fill="#C5DEDB"/>
<path d="M91.7981 0C107.373 0 120 13.4448 120 30.0296V64.5631C120 81.1481 107.373 94.5929 91.7981 94.5929H73.0274C72.9284 94.8928 72.7485 95.1751 72.4756 95.4052L43.7781 119.608C42.863 120.379 41.5927 119.94 41.1755 118.918L62.6696 57.4493C62.7234 57.2957 62.798 57.153 62.8772 57.0126C63.9617 55.0902 64.9342 48.8785 60.9167 37.5478C56.2474 24.3779 62.9877 3.75474 76.7884 0H91.7981Z" fill="#B2CCC9"/>
<path d="M40.6873 21.9215C43.0873 21.9216 45.033 23.9934 45.033 26.5489V43.5154H74.7277V26.5489C74.7277 23.9934 76.6735 21.9215 79.0735 21.9215H82.6941C85.0941 21.9215 87.0397 23.9934 87.0397 26.5489V69.3505C87.0397 71.906 85.0941 73.9779 82.6941 73.9779H79.0735C76.6735 73.9779 74.7277 71.906 74.7277 69.3505V51.2272H45.033V69.3505C45.033 71.906 43.0873 73.9778 40.6873 73.9779H37.0654C34.6656 73.9776 32.7198 71.9059 32.7198 69.3505V26.5489C32.7198 23.9935 34.6656 21.9218 37.0654 21.9215H40.6873ZM25.4772 26.5489C27.8772 26.5489 29.823 28.6207 29.823 31.1763V63.1817C29.8226 65.7369 27.8771 67.8077 25.4772 67.8077H22.218C19.8184 67.8076 17.8726 65.7368 17.8724 63.1817V31.1763C17.8724 28.6207 19.8181 26.549 22.218 26.5489H25.4772ZM97.5415 26.5489C99.9415 26.5489 101.887 28.6207 101.887 31.1763V63.1817C101.887 65.7369 99.9413 67.8077 97.5415 67.8077H94.2822C91.8825 67.8075 89.9369 65.7368 89.9365 63.1817V31.1763C89.9365 28.6209 91.8824 26.549 94.2822 26.5489H97.5415ZM14.9756 51.2272H9.18213C7.38213 51.2272 5.92285 49.6734 5.92285 47.7567V46.9859C5.92285 45.0693 7.38213 43.5154 9.18213 43.5154H14.9756V51.2272ZM110.579 43.5154C112.379 43.5154 113.838 45.0693 113.838 46.9859V47.7567C113.838 49.6734 112.379 51.2272 110.579 51.2272H104.784V43.5154H110.579Z" fill="black"/>
</svg>
