<svg width="101" height="65" viewBox="0 0 101 65" fill="none" xmlns="http://www.w3.org/2000/svg">
    <path d="M71.1684 0C76.7914 0 81.3499 4.66187 81.3499 10.4126V22.3871C81.3499 28.1377 76.7914 32.7997 71.1684 32.7997H64.3919C64.3563 32.9037 64.2911 33.0014 64.1926 33.0811L53.832 41.4731C53.4315 41.7975 52.8418 41.5057 52.8418 40.9833V32.7997H48.2601C42.6371 32.7997 38.0787 28.1377 38.0787 22.3871V10.4126C38.0787 4.66187 42.6371 2.0964e-08 48.2601 0H71.1684Z" fill="#C5DEDB"/>
    <path d="M71.2197 0C71.4161 0 71.6113 0.00585758 71.805 0.0170831C71.882 0.0223826 71.9593 0.0277375 72.0365 0.0331494C77.2777 0.458638 81.4012 4.94308 81.4012 10.4126V22.3871C81.4012 28.1377 76.8427 32.7997 71.2197 32.7997H64.4433C64.4075 32.9037 64.3425 33.0014 64.2439 33.0811L53.8832 41.4731C53.5533 41.7404 53.0947 41.5892 52.9436 41.2354L60.7036 19.9201C60.7229 19.8668 60.7499 19.8176 60.7785 19.7688C61.1701 19.1024 61.5215 16.9487 60.071 13.0196C58.3856 8.45418 60.817 1.3046 65.7968 0H71.2197Z" fill="#B2CCC9"/>
    <path d="M52.7676 7.60119C53.634 7.60119 54.3364 8.31957 54.3364 9.20569V15.0887H65.0569V9.20569C65.0569 8.31957 65.7593 7.60119 66.6258 7.60119H67.9332C68.7995 7.60122 69.5019 8.31959 69.5019 9.20569V24.0468C69.5019 24.933 68.7995 25.6513 67.9332 25.6514H66.6258C65.7593 25.6514 65.0569 24.9331 65.0569 24.0468V17.7628H54.3364V24.0468C54.3364 24.9331 53.634 25.6514 52.7676 25.6514H51.4602C50.5937 25.6513 49.8913 24.933 49.8913 24.0468V9.20569C49.8913 8.31959 50.5937 7.60121 51.4602 7.60119H52.7676ZM47.2766 9.20569C48.143 9.20569 48.8455 9.92398 48.8455 10.81V21.9077C48.8455 22.7938 48.143 23.5122 47.2766 23.5122H46.0999C45.2335 23.5122 44.5311 22.7938 44.5311 21.9077V10.81C44.5311 9.92398 45.2335 9.20569 46.0999 9.20569H47.2766ZM73.2933 9.20569C74.1597 9.20569 74.8621 9.92398 74.8621 10.81V21.9077C74.8621 22.7938 74.1597 23.5122 73.2933 23.5122H72.1166C71.2502 23.5122 70.5478 22.7938 70.5478 21.9077V10.81C70.5478 9.92398 71.2503 9.20569 72.1166 9.20569H73.2933ZM43.4852 17.7628H41.3934C40.7436 17.7628 40.2168 17.2241 40.2168 16.5595V16.2921C40.2168 15.6274 40.7436 15.0887 41.3934 15.0887H43.4852V17.7628ZM77.9999 15.0887C78.6496 15.0887 79.1764 15.6274 79.1764 16.2921V16.5595C79.1764 17.2241 78.6496 17.7628 77.9999 17.7628H75.9081V15.0887H77.9999Z" fill="black"/>
    <path d="M51.883 47.6932C56.2503 47.5921 59.6309 49.9559 59.799 53.4514C59.8817 55.17 59.0803 56.7865 57.5995 57.7954C56.156 58.7789 54.239 59.0877 52.0914 58.7606C50.9235 58.5827 50.1177 57.4701 50.2916 56.2757C50.4656 55.0813 51.5534 54.2571 52.7213 54.435C54.1627 54.6546 54.9187 54.367 55.2286 54.1558C55.5014 53.9699 55.5341 53.7936 55.528 53.6662C55.5202 53.5066 55.4202 53.1386 54.9064 52.7654C54.4111 52.4056 53.5072 52.0416 52.0554 52.0639L51.9132 52.0672C51.0813 52.0938 50.178 52.5872 49.4416 53.5664C48.7049 54.5463 48.3051 55.8055 48.3685 56.9346C48.4277 57.9897 48.8793 58.9468 49.9527 59.6279C51.1028 60.3578 53.2049 60.9145 56.779 60.4667C57.951 60.3198 59.0177 61.1725 59.1612 62.3712C59.3049 63.5699 58.471 64.6606 57.2989 64.8076C53.1861 65.3229 49.9811 64.7927 47.6981 63.3441C45.3385 61.8467 44.231 59.5335 44.0994 57.185C43.9718 54.9106 44.7493 52.6328 46.0519 50.9005C47.3551 49.1675 49.3535 47.7736 51.7797 47.6961L51.883 47.6932Z" fill="white"/>
    <path d="M21.941 47.7938C23.2625 47.7938 24.3337 48.8893 24.3337 50.2408V62.4235C24.3337 63.7749 23.2625 64.8705 21.941 64.8705C20.6196 64.8705 19.5484 63.7749 19.5484 62.4235V50.2408C19.5484 48.8893 20.6196 47.7938 21.941 47.7938Z" fill="white"/>
    <path fill-rule="evenodd" clip-rule="evenodd" d="M28.7117 41.338C29.9488 41.338 30.9516 42.3636 30.9516 43.6288V48.9315C32.0809 48.3374 33.3615 48.0021 34.7188 48.0021C39.2735 48.0021 42.9658 51.7782 42.9658 56.4363C42.9658 61.0943 39.2735 64.8705 34.7188 64.8705C30.2346 64.8705 26.5862 61.2103 26.4743 56.6518C26.4726 56.6149 26.4718 56.5778 26.4718 56.5404V43.6288C26.4718 42.3636 27.4747 41.338 28.7117 41.338ZM34.7188 52.6877C32.6945 52.6877 31.0535 54.366 31.0535 56.4363C31.0535 58.5065 32.6945 60.1848 34.7188 60.1848C36.7431 60.1848 38.3841 58.5065 38.3841 56.4363C38.3841 54.366 36.7431 52.6877 34.7188 52.6877Z" fill="white"/>
    <path d="M1.55615 41.8078C2.79659 41.3312 4.17998 41.9733 4.64598 43.2418L9.23192 55.7261L13.8142 43.255C14.2803 41.9864 15.6637 41.3446 16.9041 41.8212C18.1445 42.2979 18.7722 43.7127 18.3061 44.9813L11.6013 63.229C11.2095 64.2954 10.1696 64.9189 9.11122 64.8075C8.1375 64.8106 7.21981 64.203 6.85728 63.2161L0.153912 44.9677C-0.31209 43.6992 0.315723 42.2844 1.55615 41.8078Z" fill="white"/>
    <path d="M21.941 41.338C23.2625 41.338 24.3337 42.4335 24.3337 43.785C24.3337 45.1364 23.2625 46.2319 21.941 46.2319C20.6196 46.2319 19.5484 45.1364 19.5484 43.785C19.5484 42.4335 20.6196 41.338 21.941 41.338Z" fill="white"/>
    <path d="M79.4663 42.2751C80.7315 42.2751 81.7571 43.3241 81.7571 44.618C81.7571 45.9118 80.7315 46.9608 79.4663 46.9608H73.3065C72.4631 46.9608 71.7793 47.6601 71.7793 48.5227V49.7722C71.7793 50.6348 72.4631 51.3341 73.3065 51.3341H78.4482C79.7133 51.3341 80.739 52.383 80.739 53.6769C80.739 54.9708 79.7133 56.0197 78.4482 56.0197H73.3065C72.4631 56.0197 71.7793 56.7191 71.7793 57.5816V62.6317C71.7793 63.9256 70.7536 64.9746 69.4885 64.9746C68.2233 64.9746 67.1976 63.9256 67.1976 62.6317V44.618C67.1976 43.3241 68.2233 42.2751 69.4885 42.2751C69.5285 42.2751 69.5682 42.2762 69.6077 42.2782C69.7655 42.2866 69.9241 42.2866 70.0819 42.2782C70.1215 42.2762 70.1612 42.2751 70.2012 42.2751H79.4663Z" fill="#9AB5E3"/>
    <path d="M85.3716 47.7938C86.6367 47.7938 87.6624 48.8428 87.6624 50.1366V62.6317C87.6624 63.9256 86.6367 64.9746 85.3716 64.9746C84.1064 64.9746 83.0807 63.9256 83.0807 62.6317V50.1366C83.0807 48.8428 84.1064 47.7938 85.3716 47.7938Z" fill="#9AB5E3"/>
    <path d="M92.0912 42.2231C93.4127 42.2231 94.484 43.3186 94.484 44.67C94.484 45.6506 94.4781 46.5789 94.4693 47.4566C94.4669 47.7091 94.6952 47.8979 94.9421 47.8979H98.302C99.5672 47.8979 100.593 48.9469 100.593 50.2408C100.593 51.5346 99.5672 52.5836 98.302 52.5836H94.9421C94.663 52.5836 94.3985 52.7903 94.3963 53.0758C94.3944 53.3179 94.393 53.5537 94.3925 53.7836C94.3868 56.1815 94.4725 57.6433 94.7088 58.5908C94.9044 59.3753 95.1187 59.5058 95.3242 59.6101C95.7534 59.8281 96.6119 60.0164 98.4286 60.028L98.6074 60.0286L98.6692 60.0294C99.9621 60.063 101 61.1452 101 62.4756C101 63.8059 99.9621 64.8882 98.6692 64.9217L98.6074 64.9225L98.4197 64.922C96.4843 64.912 94.6677 64.7405 93.1966 63.9938C91.4407 63.1025 90.519 61.593 90.0719 59.8003C89.6656 58.1708 89.6017 56.1184 89.6072 53.7719C89.61 52.5659 89.6332 51.2041 89.6552 49.7034C89.6773 48.1948 89.6987 46.5255 89.6987 44.67C89.6987 43.3187 90.7699 42.2231 92.0912 42.2231Z" fill="#9AB5E3"/>
    <path d="M85.3716 41.4421C86.693 41.4421 87.7642 42.5376 87.7642 43.8891C87.7642 45.2405 86.693 46.336 85.3716 46.336C84.0501 46.336 82.9789 45.2405 82.9789 43.8891C82.9789 42.5376 84.0501 41.4421 85.3716 41.4421Z" fill="#9AB5E3"/>
</svg>